<mxfile host="app.diagrams.net" agent="Mozilla/5.0 (X11; CrOS x86_64 14541.0.0) AppleWebKit/537.36 (KHTML, like Gecko) Chrome/140.0.0.0 Safari/537.36" version="28.2.7">
  <diagram name="Page-1" id="zzzk2FPJ-quOX737wU0R">
    <mxGraphModel dx="1603" dy="865" grid="1" gridSize="10" guides="1" tooltips="1" connect="1" arrows="1" fold="1" page="1" pageScale="1" pageWidth="850" pageHeight="1100" math="0" shadow="0">
      <root>
        <mxCell id="0" />
        <mxCell id="1" parent="0" />
        <mxCell id="CIU2w_Tct6Hn36oInEiV-35" value="" style="group" vertex="1" connectable="0" parent="1">
          <mxGeometry x="20" y="30" width="338" height="760" as="geometry" />
        </mxCell>
        <mxCell id="CIU2w_Tct6Hn36oInEiV-18" value="" style="rounded=1;whiteSpace=wrap;html=1;strokeColor=default;fillColor=light-dark(#FFFFFF,#FFFFFF);" vertex="1" parent="CIU2w_Tct6Hn36oInEiV-35">
          <mxGeometry width="338" height="760" as="geometry" />
        </mxCell>
        <mxCell id="CIU2w_Tct6Hn36oInEiV-19" value="&lt;font style=&quot;font-size: 30px;&quot;&gt;Title&lt;/font&gt;" style="text;html=1;whiteSpace=wrap;strokeColor=none;fillColor=none;align=center;verticalAlign=middle;rounded=0;fontColor=light-dark(#000000,#000000);" vertex="1" parent="CIU2w_Tct6Hn36oInEiV-35">
          <mxGeometry x="32.5" y="20" width="273" height="40" as="geometry" />
        </mxCell>
        <mxCell id="CIU2w_Tct6Hn36oInEiV-20" value="Nav 1" style="text;html=1;whiteSpace=wrap;strokeColor=none;fillColor=none;align=center;verticalAlign=middle;rounded=0;fontColor=light-dark(#000000,#000000);" vertex="1" parent="CIU2w_Tct6Hn36oInEiV-35">
          <mxGeometry x="32.5" y="60" width="60" height="30" as="geometry" />
        </mxCell>
        <mxCell id="CIU2w_Tct6Hn36oInEiV-21" value="Nav 1" style="text;html=1;whiteSpace=wrap;strokeColor=none;fillColor=none;align=center;verticalAlign=middle;rounded=0;fontColor=light-dark(#000000,#000000);" vertex="1" parent="CIU2w_Tct6Hn36oInEiV-35">
          <mxGeometry x="139" y="60" width="60" height="30" as="geometry" />
        </mxCell>
        <mxCell id="CIU2w_Tct6Hn36oInEiV-22" value="Nav 1" style="text;html=1;whiteSpace=wrap;strokeColor=none;fillColor=none;align=center;verticalAlign=middle;rounded=0;fontColor=light-dark(#000000,#000000);" vertex="1" parent="CIU2w_Tct6Hn36oInEiV-35">
          <mxGeometry x="245.5" y="60" width="60" height="30" as="geometry" />
        </mxCell>
        <mxCell id="CIU2w_Tct6Hn36oInEiV-23" value="" style="rounded=0;whiteSpace=wrap;html=1;fontColor=light-dark(#000000,#01FFF1);fillColor=light-dark(#FFFFFF,#C1D5D9);" vertex="1" parent="CIU2w_Tct6Hn36oInEiV-35">
          <mxGeometry x="4" y="110" width="330" height="200" as="geometry" />
        </mxCell>
        <mxCell id="CIU2w_Tct6Hn36oInEiV-24" value="&lt;font style=&quot;font-size: 37px; color: light-dark(rgb(0, 0, 0), rgb(0, 0, 0));&quot;&gt;Title&lt;/font&gt;" style="text;html=1;whiteSpace=wrap;strokeColor=none;fillColor=none;align=center;verticalAlign=middle;rounded=0;" vertex="1" parent="CIU2w_Tct6Hn36oInEiV-35">
          <mxGeometry x="55" y="130" width="230" height="50" as="geometry" />
        </mxCell>
        <mxCell id="CIU2w_Tct6Hn36oInEiV-25" value="&lt;div style=&quot;line-height: 19px;&quot;&gt;&lt;font style=&quot;color: light-dark(rgb(0, 0, 0), rgb(0, 0, 0));&quot;&gt;Lorem ipsum dolor sit amet &lt;/font&gt;&lt;/div&gt;&lt;div style=&quot;line-height: 19px;&quot;&gt;&lt;font style=&quot;color: light-dark(rgb(0, 0, 0), rgb(0, 0, 0));&quot;&gt;&lt;span style=&quot;font-size: 13px;&quot;&gt;consectetur adipisicing elit. &lt;/span&gt;&lt;/font&gt;&lt;/div&gt;&lt;div style=&quot;line-height: 19px;&quot;&gt;&lt;font style=&quot;color: light-dark(rgb(0, 0, 0), rgb(0, 0, 0));&quot;&gt;&lt;span style=&quot;font-size: 13px;&quot;&gt;Placeat blanditiis tempore &lt;/span&gt;&lt;/font&gt;&lt;/div&gt;&lt;div style=&quot;line-height: 19px;&quot;&gt;&lt;font style=&quot;color: light-dark(rgb(0, 0, 0), rgb(0, 0, 0));&quot;&gt;delectus modi voluptates quo officia..&lt;/font&gt;&lt;/div&gt;" style="text;html=1;whiteSpace=wrap;strokeColor=none;fillColor=none;align=center;verticalAlign=middle;rounded=0;" vertex="1" parent="CIU2w_Tct6Hn36oInEiV-35">
          <mxGeometry x="15" y="185" width="310" height="90" as="geometry" />
        </mxCell>
        <mxCell id="CIU2w_Tct6Hn36oInEiV-26" value="" style="rounded=1;whiteSpace=wrap;html=1;fillColor=#0050ef;fontColor=#ffffff;strokeColor=#001DBC;" vertex="1" parent="CIU2w_Tct6Hn36oInEiV-35">
          <mxGeometry x="109" y="340" width="120" height="60" as="geometry" />
        </mxCell>
        <mxCell id="CIU2w_Tct6Hn36oInEiV-27" value="&lt;font style=&quot;font-size: 23px;&quot;&gt;Games&lt;/font&gt;" style="text;html=1;whiteSpace=wrap;strokeColor=none;fillColor=none;align=center;verticalAlign=middle;rounded=0;fontColor=light-dark(#000000,#000000);" vertex="1" parent="CIU2w_Tct6Hn36oInEiV-35">
          <mxGeometry x="120" y="355" width="90" height="30" as="geometry" />
        </mxCell>
        <mxCell id="CIU2w_Tct6Hn36oInEiV-30" value="" style="group" vertex="1" connectable="0" parent="CIU2w_Tct6Hn36oInEiV-35">
          <mxGeometry x="2" y="679" width="335" height="80" as="geometry" />
        </mxCell>
        <mxCell id="CIU2w_Tct6Hn36oInEiV-28" value="" style="rounded=1;whiteSpace=wrap;html=1;arcSize=50;fillColor=#0050ef;fontColor=#ffffff;strokeColor=#001DBC;" vertex="1" parent="CIU2w_Tct6Hn36oInEiV-30">
          <mxGeometry width="335" height="80" as="geometry" />
        </mxCell>
        <mxCell id="CIU2w_Tct6Hn36oInEiV-29" value="&lt;font style=&quot;font-size: 26px;&quot;&gt;Footer&lt;/font&gt;" style="text;html=1;whiteSpace=wrap;strokeColor=none;fillColor=none;align=center;verticalAlign=middle;rounded=0;" vertex="1" parent="CIU2w_Tct6Hn36oInEiV-30">
          <mxGeometry x="6" y="11" width="320" height="59" as="geometry" />
        </mxCell>
        <mxCell id="CIU2w_Tct6Hn36oInEiV-36" value="" style="group" vertex="1" connectable="0" parent="1">
          <mxGeometry x="470" y="30" width="338" height="760" as="geometry" />
        </mxCell>
        <mxCell id="CIU2w_Tct6Hn36oInEiV-7" value="" style="rounded=1;whiteSpace=wrap;html=1;strokeColor=default;fillColor=light-dark(#FFFFFF,#FFFFFF);container=0;" vertex="1" parent="CIU2w_Tct6Hn36oInEiV-36">
          <mxGeometry width="338" height="760" as="geometry" />
        </mxCell>
        <mxCell id="CIU2w_Tct6Hn36oInEiV-6" value="&lt;font style=&quot;font-size: 44px;&quot;&gt;Level 2&lt;/font&gt;" style="text;html=1;whiteSpace=wrap;strokeColor=none;fillColor=none;align=center;verticalAlign=middle;rounded=0;fontColor=light-dark(#000000,#000000);container=0;" vertex="1" parent="CIU2w_Tct6Hn36oInEiV-36">
          <mxGeometry x="52" y="120" width="230" height="30" as="geometry" />
        </mxCell>
        <mxCell id="CIU2w_Tct6Hn36oInEiV-13" value="&lt;font style=&quot;font-size: 30px;&quot;&gt;Title&lt;/font&gt;" style="text;html=1;whiteSpace=wrap;strokeColor=none;fillColor=none;align=center;verticalAlign=middle;rounded=0;fontColor=light-dark(#000000,#000000);container=0;" vertex="1" parent="CIU2w_Tct6Hn36oInEiV-36">
          <mxGeometry x="34" y="10" width="273" height="40" as="geometry" />
        </mxCell>
        <mxCell id="CIU2w_Tct6Hn36oInEiV-14" value="Nav 1" style="text;html=1;whiteSpace=wrap;strokeColor=none;fillColor=none;align=center;verticalAlign=middle;rounded=0;fontColor=light-dark(#000000,#000000);container=0;" vertex="1" parent="CIU2w_Tct6Hn36oInEiV-36">
          <mxGeometry x="34" y="50" width="60" height="30" as="geometry" />
        </mxCell>
        <mxCell id="CIU2w_Tct6Hn36oInEiV-15" value="Nav 2" style="text;html=1;whiteSpace=wrap;strokeColor=none;fillColor=none;align=center;verticalAlign=middle;rounded=0;fontColor=light-dark(#000000,#000000);container=0;" vertex="1" parent="CIU2w_Tct6Hn36oInEiV-36">
          <mxGeometry x="142" y="50" width="60" height="30" as="geometry" />
        </mxCell>
        <mxCell id="CIU2w_Tct6Hn36oInEiV-16" value="Nav 3" style="text;html=1;whiteSpace=wrap;strokeColor=none;fillColor=none;align=center;verticalAlign=middle;rounded=0;fontColor=light-dark(#000000,#000000);container=0;" vertex="1" parent="CIU2w_Tct6Hn36oInEiV-36">
          <mxGeometry x="244" y="50" width="60" height="30" as="geometry" />
        </mxCell>
        <mxCell id="CIU2w_Tct6Hn36oInEiV-3" value="" style="rounded=1;whiteSpace=wrap;html=1;container=0;" vertex="1" parent="CIU2w_Tct6Hn36oInEiV-36">
          <mxGeometry x="112" y="568" width="120" height="60" as="geometry" />
        </mxCell>
        <mxCell id="CIU2w_Tct6Hn36oInEiV-4" value="&lt;font style=&quot;font-size: 24px;&quot;&gt;Start&lt;/font&gt;" style="text;html=1;whiteSpace=wrap;strokeColor=none;fillColor=none;align=center;verticalAlign=middle;rounded=0;container=0;" vertex="1" parent="CIU2w_Tct6Hn36oInEiV-36">
          <mxGeometry x="122" y="568" width="100" height="60" as="geometry" />
        </mxCell>
        <mxCell id="CIU2w_Tct6Hn36oInEiV-1" value="h" style="rounded=1;whiteSpace=wrap;html=1;fillColor=light-dark(#FFFFFF,#B1B1B1);container=0;" vertex="1" parent="CIU2w_Tct6Hn36oInEiV-36">
          <mxGeometry x="54" y="458" width="230" height="60" as="geometry" />
        </mxCell>
        <mxCell id="CIU2w_Tct6Hn36oInEiV-2" value="&lt;font style=&quot;font-size: 28px;&quot;&gt;100&lt;/font&gt;" style="text;html=1;whiteSpace=wrap;align=center;verticalAlign=middle;rounded=0;fontColor=light-dark(#000000,#050505);container=0;" vertex="1" parent="CIU2w_Tct6Hn36oInEiV-36">
          <mxGeometry x="142" y="473" width="60" height="30" as="geometry" />
        </mxCell>
        <mxCell id="CIU2w_Tct6Hn36oInEiV-8" value="" style="rounded=1;whiteSpace=wrap;html=1;fontColor=#ffffff;fillColor=#0050ef;strokeColor=#001DBC;container=0;" vertex="1" parent="CIU2w_Tct6Hn36oInEiV-36">
          <mxGeometry x="34" y="188" width="270" height="260" as="geometry" />
        </mxCell>
        <mxCell id="Trq_BZdBl9MvOM--GRWa-1" value="" style="rounded=0;whiteSpace=wrap;html=1;fillColor=light-dark(#FFFFFF,#FF3333);container=0;" parent="CIU2w_Tct6Hn36oInEiV-36" vertex="1">
          <mxGeometry x="57" y="208" width="60" height="60" as="geometry" />
        </mxCell>
        <mxCell id="Trq_BZdBl9MvOM--GRWa-2" value="" style="rounded=0;whiteSpace=wrap;html=1;fillColor=light-dark(#FFFFFF,#00FFFF);container=0;" parent="CIU2w_Tct6Hn36oInEiV-36" vertex="1">
          <mxGeometry x="137" y="288" width="60" height="60" as="geometry" />
        </mxCell>
        <mxCell id="Trq_BZdBl9MvOM--GRWa-3" value="" style="rounded=0;whiteSpace=wrap;html=1;fillColor=light-dark(#FFFFFF,#3333FF);container=0;" parent="CIU2w_Tct6Hn36oInEiV-36" vertex="1">
          <mxGeometry x="217" y="288" width="60" height="60" as="geometry" />
        </mxCell>
        <mxCell id="Trq_BZdBl9MvOM--GRWa-4" value="" style="rounded=0;whiteSpace=wrap;html=1;fillColor=light-dark(#FFFFFF,#00FF00);container=0;" parent="CIU2w_Tct6Hn36oInEiV-36" vertex="1">
          <mxGeometry x="57" y="288" width="60" height="60" as="geometry" />
        </mxCell>
        <mxCell id="Trq_BZdBl9MvOM--GRWa-5" value="" style="rounded=0;whiteSpace=wrap;html=1;fillColor=light-dark(#FFFFFF,#FFFF00);container=0;" parent="CIU2w_Tct6Hn36oInEiV-36" vertex="1">
          <mxGeometry x="217" y="208" width="60" height="60" as="geometry" />
        </mxCell>
        <mxCell id="Trq_BZdBl9MvOM--GRWa-6" value="" style="rounded=0;whiteSpace=wrap;html=1;fillColor=light-dark(#FFFFFF,#FF9933);container=0;" parent="CIU2w_Tct6Hn36oInEiV-36" vertex="1">
          <mxGeometry x="137" y="208" width="60" height="60" as="geometry" />
        </mxCell>
        <mxCell id="Trq_BZdBl9MvOM--GRWa-7" value="" style="rounded=0;whiteSpace=wrap;html=1;container=0;" parent="CIU2w_Tct6Hn36oInEiV-36" vertex="1">
          <mxGeometry x="217" y="368" width="60" height="60" as="geometry" />
        </mxCell>
        <mxCell id="Trq_BZdBl9MvOM--GRWa-8" value="" style="rounded=0;whiteSpace=wrap;html=1;fillColor=light-dark(#FFFFFF,#FF00FF);container=0;" parent="CIU2w_Tct6Hn36oInEiV-36" vertex="1">
          <mxGeometry x="137" y="368" width="60" height="60" as="geometry" />
        </mxCell>
        <mxCell id="Trq_BZdBl9MvOM--GRWa-9" value="" style="rounded=0;whiteSpace=wrap;html=1;fillColor=light-dark(#FFFFFF,#7F00FF);container=0;" parent="CIU2w_Tct6Hn36oInEiV-36" vertex="1">
          <mxGeometry x="57" y="368" width="60" height="60" as="geometry" />
        </mxCell>
        <mxCell id="CIU2w_Tct6Hn36oInEiV-33" value="" style="rounded=1;whiteSpace=wrap;html=1;arcSize=50;fillColor=#0050ef;fontColor=#ffffff;strokeColor=#001DBC;container=0;" vertex="1" parent="CIU2w_Tct6Hn36oInEiV-36">
          <mxGeometry x="1.5" y="679" width="335" height="80" as="geometry" />
        </mxCell>
        <mxCell id="CIU2w_Tct6Hn36oInEiV-34" value="&lt;font style=&quot;font-size: 26px;&quot;&gt;Footer&lt;/font&gt;" style="text;html=1;whiteSpace=wrap;strokeColor=none;fillColor=none;align=center;verticalAlign=middle;rounded=0;container=0;" vertex="1" parent="CIU2w_Tct6Hn36oInEiV-36">
          <mxGeometry x="7.5" y="690" width="320" height="59" as="geometry" />
        </mxCell>
        <mxCell id="CIU2w_Tct6Hn36oInEiV-37" value="" style="group" vertex="1" connectable="0" parent="1">
          <mxGeometry x="920" y="30" width="338" height="760" as="geometry" />
        </mxCell>
        <mxCell id="CIU2w_Tct6Hn36oInEiV-38" value="" style="rounded=1;whiteSpace=wrap;html=1;strokeColor=default;fillColor=light-dark(#FFFFFF,#FFFFFF);" vertex="1" parent="CIU2w_Tct6Hn36oInEiV-37">
          <mxGeometry width="338" height="760" as="geometry" />
        </mxCell>
        <mxCell id="CIU2w_Tct6Hn36oInEiV-39" value="&lt;font style=&quot;font-size: 30px;&quot;&gt;Title&lt;/font&gt;" style="text;html=1;whiteSpace=wrap;strokeColor=none;fillColor=none;align=center;verticalAlign=middle;rounded=0;fontColor=light-dark(#000000,#000000);" vertex="1" parent="CIU2w_Tct6Hn36oInEiV-37">
          <mxGeometry x="32.5" y="20" width="273" height="40" as="geometry" />
        </mxCell>
        <mxCell id="CIU2w_Tct6Hn36oInEiV-40" value="Nav 1" style="text;html=1;whiteSpace=wrap;strokeColor=none;fillColor=none;align=center;verticalAlign=middle;rounded=0;fontColor=light-dark(#000000,#000000);" vertex="1" parent="CIU2w_Tct6Hn36oInEiV-37">
          <mxGeometry x="32.5" y="60" width="60" height="30" as="geometry" />
        </mxCell>
        <mxCell id="CIU2w_Tct6Hn36oInEiV-41" value="Nav 1" style="text;html=1;whiteSpace=wrap;strokeColor=none;fillColor=none;align=center;verticalAlign=middle;rounded=0;fontColor=light-dark(#000000,#000000);" vertex="1" parent="CIU2w_Tct6Hn36oInEiV-37">
          <mxGeometry x="139" y="60" width="60" height="30" as="geometry" />
        </mxCell>
        <mxCell id="CIU2w_Tct6Hn36oInEiV-42" value="Nav 1" style="text;html=1;whiteSpace=wrap;strokeColor=none;fillColor=none;align=center;verticalAlign=middle;rounded=0;fontColor=light-dark(#000000,#000000);" vertex="1" parent="CIU2w_Tct6Hn36oInEiV-37">
          <mxGeometry x="245.5" y="60" width="60" height="30" as="geometry" />
        </mxCell>
        <mxCell id="CIU2w_Tct6Hn36oInEiV-44" value="&lt;font style=&quot;font-size: 37px; color: light-dark(rgb(0, 0, 0), rgb(0, 0, 0));&quot;&gt;Select a level&lt;/font&gt;" style="text;html=1;whiteSpace=wrap;strokeColor=none;fillColor=none;align=center;verticalAlign=middle;rounded=0;" vertex="1" parent="CIU2w_Tct6Hn36oInEiV-37">
          <mxGeometry x="55" y="130" width="230" height="50" as="geometry" />
        </mxCell>
        <mxCell id="CIU2w_Tct6Hn36oInEiV-48" value="" style="group" vertex="1" connectable="0" parent="CIU2w_Tct6Hn36oInEiV-37">
          <mxGeometry x="2" y="679" width="335" height="80" as="geometry" />
        </mxCell>
        <mxCell id="CIU2w_Tct6Hn36oInEiV-49" value="" style="rounded=1;whiteSpace=wrap;html=1;arcSize=50;fillColor=#0050ef;fontColor=#ffffff;strokeColor=#001DBC;" vertex="1" parent="CIU2w_Tct6Hn36oInEiV-48">
          <mxGeometry width="335" height="80" as="geometry" />
        </mxCell>
        <mxCell id="CIU2w_Tct6Hn36oInEiV-50" value="&lt;font style=&quot;font-size: 26px;&quot;&gt;Footer&lt;/font&gt;" style="text;html=1;whiteSpace=wrap;strokeColor=none;fillColor=none;align=center;verticalAlign=middle;rounded=0;" vertex="1" parent="CIU2w_Tct6Hn36oInEiV-48">
          <mxGeometry x="6" y="11" width="320" height="59" as="geometry" />
        </mxCell>
        <mxCell id="CIU2w_Tct6Hn36oInEiV-51" value="" style="group" vertex="1" connectable="0" parent="CIU2w_Tct6Hn36oInEiV-37">
          <mxGeometry x="9" y="200" width="98.18" height="90" as="geometry" />
        </mxCell>
        <mxCell id="CIU2w_Tct6Hn36oInEiV-59" value="" style="group" vertex="1" connectable="0" parent="CIU2w_Tct6Hn36oInEiV-51">
          <mxGeometry width="98.18" height="90" as="geometry" />
        </mxCell>
        <mxCell id="CIU2w_Tct6Hn36oInEiV-46" value="" style="rounded=1;whiteSpace=wrap;html=1;fillColor=#0050ef;fontColor=#ffffff;strokeColor=#001DBC;" vertex="1" parent="CIU2w_Tct6Hn36oInEiV-59">
          <mxGeometry width="98.18" height="90" as="geometry" />
        </mxCell>
        <mxCell id="CIU2w_Tct6Hn36oInEiV-47" value="&lt;font style=&quot;font-size: 23px;&quot;&gt;Level 1&lt;/font&gt;" style="text;html=1;whiteSpace=wrap;strokeColor=none;fillColor=none;align=center;verticalAlign=middle;rounded=0;fontColor=light-dark(#000000,#000000);" vertex="1" parent="CIU2w_Tct6Hn36oInEiV-59">
          <mxGeometry x="4.090000000000003" y="30" width="90" height="30" as="geometry" />
        </mxCell>
        <mxCell id="CIU2w_Tct6Hn36oInEiV-52" value="" style="group" vertex="1" connectable="0" parent="CIU2w_Tct6Hn36oInEiV-37">
          <mxGeometry x="118" y="200" width="98.18" height="90" as="geometry" />
        </mxCell>
        <mxCell id="CIU2w_Tct6Hn36oInEiV-53" value="" style="rounded=1;whiteSpace=wrap;html=1;fillColor=#0050ef;fontColor=#ffffff;strokeColor=#001DBC;" vertex="1" parent="CIU2w_Tct6Hn36oInEiV-52">
          <mxGeometry width="98.18" height="90" as="geometry" />
        </mxCell>
        <mxCell id="CIU2w_Tct6Hn36oInEiV-54" value="&lt;font style=&quot;font-size: 23px;&quot;&gt;Level 2&lt;/font&gt;" style="text;html=1;whiteSpace=wrap;strokeColor=none;fillColor=none;align=center;verticalAlign=middle;rounded=0;fontColor=light-dark(#000000,#000000);" vertex="1" parent="CIU2w_Tct6Hn36oInEiV-52">
          <mxGeometry x="4.090000000000003" y="30" width="90" height="30" as="geometry" />
        </mxCell>
        <mxCell id="CIU2w_Tct6Hn36oInEiV-66" value="" style="group" vertex="1" connectable="0" parent="CIU2w_Tct6Hn36oInEiV-37">
          <mxGeometry x="226.41000000000008" y="303" width="98.18" height="90" as="geometry" />
        </mxCell>
        <mxCell id="CIU2w_Tct6Hn36oInEiV-67" value="" style="rounded=1;whiteSpace=wrap;html=1;fillColor=#0050ef;fontColor=#ffffff;strokeColor=#001DBC;" vertex="1" parent="CIU2w_Tct6Hn36oInEiV-66">
          <mxGeometry width="98.18" height="90" as="geometry" />
        </mxCell>
        <mxCell id="CIU2w_Tct6Hn36oInEiV-68" value="&lt;font style=&quot;font-size: 23px;&quot;&gt;Level 6&lt;/font&gt;" style="text;html=1;whiteSpace=wrap;strokeColor=none;fillColor=none;align=center;verticalAlign=middle;rounded=0;fontColor=light-dark(#000000,#000000);" vertex="1" parent="CIU2w_Tct6Hn36oInEiV-66">
          <mxGeometry x="4.090000000000003" y="30" width="90" height="30" as="geometry" />
        </mxCell>
        <mxCell id="CIU2w_Tct6Hn36oInEiV-63" value="" style="group" vertex="1" connectable="0" parent="CIU2w_Tct6Hn36oInEiV-37">
          <mxGeometry x="118" y="303" width="98.18" height="90" as="geometry" />
        </mxCell>
        <mxCell id="CIU2w_Tct6Hn36oInEiV-64" value="" style="rounded=1;whiteSpace=wrap;html=1;fillColor=#0050ef;fontColor=#ffffff;strokeColor=#001DBC;" vertex="1" parent="CIU2w_Tct6Hn36oInEiV-63">
          <mxGeometry width="98.18" height="90" as="geometry" />
        </mxCell>
        <mxCell id="CIU2w_Tct6Hn36oInEiV-65" value="&lt;font style=&quot;font-size: 23px;&quot;&gt;Level 5&lt;/font&gt;" style="text;html=1;whiteSpace=wrap;strokeColor=none;fillColor=none;align=center;verticalAlign=middle;rounded=0;fontColor=light-dark(#000000,#000000);" vertex="1" parent="CIU2w_Tct6Hn36oInEiV-63">
          <mxGeometry x="4.090000000000003" y="30" width="90" height="30" as="geometry" />
        </mxCell>
        <mxCell id="CIU2w_Tct6Hn36oInEiV-60" value="" style="group" vertex="1" connectable="0" parent="CIU2w_Tct6Hn36oInEiV-37">
          <mxGeometry x="9" y="303" width="98.18" height="90" as="geometry" />
        </mxCell>
        <mxCell id="CIU2w_Tct6Hn36oInEiV-61" value="" style="rounded=1;whiteSpace=wrap;html=1;fillColor=#0050ef;fontColor=#ffffff;strokeColor=#001DBC;" vertex="1" parent="CIU2w_Tct6Hn36oInEiV-60">
          <mxGeometry width="98.18" height="90" as="geometry" />
        </mxCell>
        <mxCell id="CIU2w_Tct6Hn36oInEiV-62" value="&lt;font style=&quot;font-size: 23px;&quot;&gt;Level 4&lt;/font&gt;" style="text;html=1;whiteSpace=wrap;strokeColor=none;fillColor=none;align=center;verticalAlign=middle;rounded=0;fontColor=light-dark(#000000,#000000);" vertex="1" parent="CIU2w_Tct6Hn36oInEiV-60">
          <mxGeometry x="4.090000000000003" y="30" width="90" height="30" as="geometry" />
        </mxCell>
        <mxCell id="CIU2w_Tct6Hn36oInEiV-55" value="" style="group" vertex="1" connectable="0" parent="1">
          <mxGeometry x="1147" y="232" width="98.18" height="90" as="geometry" />
        </mxCell>
        <mxCell id="CIU2w_Tct6Hn36oInEiV-56" value="" style="rounded=1;whiteSpace=wrap;html=1;fillColor=#0050ef;fontColor=#ffffff;strokeColor=#001DBC;" vertex="1" parent="CIU2w_Tct6Hn36oInEiV-55">
          <mxGeometry width="98.18" height="90" as="geometry" />
        </mxCell>
        <mxCell id="CIU2w_Tct6Hn36oInEiV-57" value="&lt;font style=&quot;font-size: 23px;&quot;&gt;Level 3&lt;/font&gt;" style="text;html=1;whiteSpace=wrap;strokeColor=none;fillColor=none;align=center;verticalAlign=middle;rounded=0;fontColor=light-dark(#000000,#000000);" vertex="1" parent="CIU2w_Tct6Hn36oInEiV-55">
          <mxGeometry x="4.090000000000003" y="30" width="90" height="30" as="geometry" />
        </mxCell>
        <mxCell id="CIU2w_Tct6Hn36oInEiV-70" value="&lt;font style=&quot;font-size: 46px;&quot;&gt;Home page&lt;/font&gt;&lt;span style=&quot;color: rgba(0, 0, 0, 0); font-family: monospace; font-size: 0px; text-align: start; text-wrap-mode: nowrap;&quot;&gt;%3CmxGraphModel%3E%3Croot%3E%3CmxCell%20id%3D%220%22%2F%3E%3CmxCell%20id%3D%221%22%20parent%3D%220%22%2F%3E%3CmxCell%20id%3D%222%22%20value%3D%22%22%20style%3D%22group%22%20vertex%3D%221%22%20connectable%3D%220%22%20parent%3D%221%22%3E%3CmxGeometry%20x%3D%22929%22%20y%3D%22230%22%20width%3D%2298.18%22%20height%3D%2290%22%20as%3D%22geometry%22%2F%3E%3C%2FmxCell%3E%3CmxCell%20id%3D%223%22%20value%3D%22%22%20style%3D%22rounded%3D1%3BwhiteSpace%3Dwrap%3Bhtml%3D1%3BfillColor%3D%230050ef%3BfontColor%3D%23ffffff%3BstrokeColor%3D%23001DBC%3B%22%20vertex%3D%221%22%20parent%3D%222%22%3E%3CmxGeometry%20width%3D%2298.18%22%20height%3D%2290%22%20as%3D%22geometry%22%2F%3E%3C%2FmxCell%3E%3CmxCell%20id%3D%224%22%20value%3D%22%26lt%3Bfont%20style%3D%26quot%3Bfont-size%3A%2023px%3B%26quot%3B%26gt%3BLevel%201%26lt%3B%2Ffont%26gt%3B%22%20style%3D%22text%3Bhtml%3D1%3BwhiteSpace%3Dwrap%3BstrokeColor%3Dnone%3BfillColor%3Dnone%3Balign%3Dcenter%3BverticalAlign%3Dmiddle%3Brounded%3D0%3BfontColor%3Dlight-dark(%23000000%2C%23000000)%3B%22%20vertex%3D%221%22%20parent%3D%222%22%3E%3CmxGeometry%20x%3D%224.090000000000003%22%20y%3D%2230%22%20width%3D%2290%22%20height%3D%2230%22%20as%3D%22geometry%22%2F%3E%3C%2FmxCell%3E%3C%2Froot%3E%3C%2FmxGraphModel%3E&lt;/span&gt;" style="text;html=1;whiteSpace=wrap;strokeColor=none;fillColor=none;align=center;verticalAlign=middle;rounded=0;" vertex="1" parent="1">
          <mxGeometry x="69" y="840" width="240" height="80" as="geometry" />
        </mxCell>
        <mxCell id="CIU2w_Tct6Hn36oInEiV-71" value="&lt;span style=&quot;font-size: 46px;&quot;&gt;Game window&lt;/span&gt;" style="text;html=1;whiteSpace=wrap;strokeColor=none;fillColor=none;align=center;verticalAlign=middle;rounded=0;" vertex="1" parent="1">
          <mxGeometry x="519" y="840" width="240" height="80" as="geometry" />
        </mxCell>
        <mxCell id="CIU2w_Tct6Hn36oInEiV-72" value="&lt;span style=&quot;font-size: 46px;&quot;&gt;Level Select&lt;/span&gt;" style="text;html=1;whiteSpace=wrap;strokeColor=none;fillColor=none;align=center;verticalAlign=middle;rounded=0;" vertex="1" parent="1">
          <mxGeometry x="969" y="840" width="240" height="80" as="geometry" />
        </mxCell>
        <mxCell id="CIU2w_Tct6Hn36oInEiV-73" value="" style="group" vertex="1" connectable="0" parent="1">
          <mxGeometry x="1370" y="30" width="338" height="760" as="geometry" />
        </mxCell>
        <mxCell id="CIU2w_Tct6Hn36oInEiV-74" value="" style="rounded=1;whiteSpace=wrap;html=1;strokeColor=default;fillColor=light-dark(#FFFFFF,#FFFFFF);" vertex="1" parent="CIU2w_Tct6Hn36oInEiV-73">
          <mxGeometry width="338" height="760" as="geometry" />
        </mxCell>
        <mxCell id="CIU2w_Tct6Hn36oInEiV-75" value="&lt;font style=&quot;font-size: 30px;&quot;&gt;Title&lt;/font&gt;" style="text;html=1;whiteSpace=wrap;strokeColor=none;fillColor=none;align=center;verticalAlign=middle;rounded=0;fontColor=light-dark(#000000,#000000);" vertex="1" parent="CIU2w_Tct6Hn36oInEiV-73">
          <mxGeometry x="32.5" y="20" width="273" height="40" as="geometry" />
        </mxCell>
        <mxCell id="CIU2w_Tct6Hn36oInEiV-76" value="Nav 1" style="text;html=1;whiteSpace=wrap;strokeColor=none;fillColor=none;align=center;verticalAlign=middle;rounded=0;fontColor=light-dark(#000000,#000000);" vertex="1" parent="CIU2w_Tct6Hn36oInEiV-73">
          <mxGeometry x="32.5" y="60" width="60" height="30" as="geometry" />
        </mxCell>
        <mxCell id="CIU2w_Tct6Hn36oInEiV-77" value="Nav 1" style="text;html=1;whiteSpace=wrap;strokeColor=none;fillColor=none;align=center;verticalAlign=middle;rounded=0;fontColor=light-dark(#000000,#000000);" vertex="1" parent="CIU2w_Tct6Hn36oInEiV-73">
          <mxGeometry x="139" y="60" width="60" height="30" as="geometry" />
        </mxCell>
        <mxCell id="CIU2w_Tct6Hn36oInEiV-78" value="Nav 1" style="text;html=1;whiteSpace=wrap;strokeColor=none;fillColor=none;align=center;verticalAlign=middle;rounded=0;fontColor=light-dark(#000000,#000000);" vertex="1" parent="CIU2w_Tct6Hn36oInEiV-73">
          <mxGeometry x="245.5" y="60" width="60" height="30" as="geometry" />
        </mxCell>
        <mxCell id="CIU2w_Tct6Hn36oInEiV-79" value="" style="rounded=0;whiteSpace=wrap;html=1;fontColor=light-dark(#000000,#01FFF1);fillColor=light-dark(#FFFFFF,#C1D5D9);" vertex="1" parent="CIU2w_Tct6Hn36oInEiV-73">
          <mxGeometry x="4" y="110" width="330" height="200" as="geometry" />
        </mxCell>
        <mxCell id="CIU2w_Tct6Hn36oInEiV-80" value="&lt;font style=&quot;font-size: 37px; color: light-dark(rgb(0, 0, 0), rgb(0, 0, 0));&quot;&gt;Coming Soon&lt;/font&gt;" style="text;html=1;whiteSpace=wrap;strokeColor=none;fillColor=none;align=center;verticalAlign=middle;rounded=0;" vertex="1" parent="CIU2w_Tct6Hn36oInEiV-73">
          <mxGeometry x="55" y="130" width="230" height="50" as="geometry" />
        </mxCell>
        <mxCell id="CIU2w_Tct6Hn36oInEiV-81" value="&lt;div style=&quot;line-height: 19px;&quot;&gt;&lt;font style=&quot;color: light-dark(rgb(0, 0, 0), rgb(0, 0, 0));&quot;&gt;Lorem ipsum dolor sit amet &lt;/font&gt;&lt;/div&gt;&lt;div style=&quot;line-height: 19px;&quot;&gt;&lt;font style=&quot;color: light-dark(rgb(0, 0, 0), rgb(0, 0, 0));&quot;&gt;&lt;span style=&quot;font-size: 13px;&quot;&gt;consectetur adipisicing elit. &lt;/span&gt;&lt;/font&gt;&lt;/div&gt;&lt;div style=&quot;line-height: 19px;&quot;&gt;&lt;font style=&quot;color: light-dark(rgb(0, 0, 0), rgb(0, 0, 0));&quot;&gt;&lt;span style=&quot;font-size: 13px;&quot;&gt;Placeat blanditiis tempore &lt;/span&gt;&lt;/font&gt;&lt;/div&gt;&lt;div style=&quot;line-height: 19px;&quot;&gt;&lt;font style=&quot;color: light-dark(rgb(0, 0, 0), rgb(0, 0, 0));&quot;&gt;delectus modi voluptates quo officia..&lt;/font&gt;&lt;/div&gt;" style="text;html=1;whiteSpace=wrap;strokeColor=none;fillColor=none;align=center;verticalAlign=middle;rounded=0;" vertex="1" parent="CIU2w_Tct6Hn36oInEiV-73">
          <mxGeometry x="15" y="185" width="310" height="90" as="geometry" />
        </mxCell>
        <mxCell id="CIU2w_Tct6Hn36oInEiV-82" value="" style="rounded=1;whiteSpace=wrap;html=1;fillColor=#0050ef;fontColor=#ffffff;strokeColor=#001DBC;" vertex="1" parent="CIU2w_Tct6Hn36oInEiV-73">
          <mxGeometry x="109" y="340" width="120" height="60" as="geometry" />
        </mxCell>
        <mxCell id="CIU2w_Tct6Hn36oInEiV-83" value="&lt;font style=&quot;font-size: 23px;&quot;&gt;Games&lt;/font&gt;" style="text;html=1;whiteSpace=wrap;strokeColor=none;fillColor=none;align=center;verticalAlign=middle;rounded=0;fontColor=light-dark(#000000,#000000);" vertex="1" parent="CIU2w_Tct6Hn36oInEiV-73">
          <mxGeometry x="120" y="355" width="90" height="30" as="geometry" />
        </mxCell>
        <mxCell id="CIU2w_Tct6Hn36oInEiV-84" value="" style="group" vertex="1" connectable="0" parent="CIU2w_Tct6Hn36oInEiV-73">
          <mxGeometry x="2" y="679" width="335" height="80" as="geometry" />
        </mxCell>
        <mxCell id="CIU2w_Tct6Hn36oInEiV-85" value="" style="rounded=1;whiteSpace=wrap;html=1;arcSize=50;fillColor=#0050ef;fontColor=#ffffff;strokeColor=#001DBC;" vertex="1" parent="CIU2w_Tct6Hn36oInEiV-84">
          <mxGeometry width="335" height="80" as="geometry" />
        </mxCell>
        <mxCell id="CIU2w_Tct6Hn36oInEiV-86" value="&lt;font style=&quot;font-size: 26px;&quot;&gt;Footer&lt;/font&gt;" style="text;html=1;whiteSpace=wrap;strokeColor=none;fillColor=none;align=center;verticalAlign=middle;rounded=0;" vertex="1" parent="CIU2w_Tct6Hn36oInEiV-84">
          <mxGeometry x="6" y="11" width="320" height="59" as="geometry" />
        </mxCell>
        <mxCell id="CIU2w_Tct6Hn36oInEiV-87" value="&lt;span style=&quot;font-size: 46px;&quot;&gt;Coming Soon/redirect window&lt;/span&gt;" style="text;html=1;whiteSpace=wrap;strokeColor=none;fillColor=none;align=center;verticalAlign=middle;rounded=0;" vertex="1" parent="1">
          <mxGeometry x="1419" y="840" width="240" height="80" as="geometry" />
        </mxCell>
      </root>
    </mxGraphModel>
  </diagram>
</mxfile>
